<svg xmlns="http://www.w3.org/2000/svg" xmlns:xlink="http://www.w3.org/1999/xlink" width="298" height="90" viewBox="0 0 298 90">
  <metadata><?xpacket begin="﻿" id="W5M0MpCehiHzreSzNTczkc9d"?>
<x:xmpmeta xmlns:x="adobe:ns:meta/" x:xmptk="Adobe XMP Core 5.6-c142 79.160924, 2017/07/13-01:06:39        ">
   <rdf:RDF xmlns:rdf="http://www.w3.org/1999/02/22-rdf-syntax-ns#">
      <rdf:Description rdf:about=""/>
   </rdf:RDF>
</x:xmpmeta>
                                                                                                    
                                                                                                    
                                                                                                    
                                                                                                    
                                                                                                    
                                                                                                    
                                                                                                    
                                                                                                    
                                                                                                    
                                                                                                    
                                                                                                    
                                                                                                    
                                                                                                    
                                                                                                    
                                                                                                    
                                                                                                    
                                                                                                    
                                                                                                    
                                                                                                    
                                                                                                    
                           
<?xpacket end="w"?></metadata>
<defs>
    <style>
      .cls-1 {
        filter: url(#filter);
      }

      .cls-2, .cls-3 {
        font-size: 80px;
        fill: #4766cd;
        font-family: "Century Gothic";
        font-weight: 700;
      }

      .cls-3 {
        opacity: 0.99;
      }

      .cls-4 {
        fill: #ff7f9d;
        fill-rule: evenodd;
      }
    </style>
    <filter id="filter" filterUnits="userSpaceOnUse">
      <feOffset result="offset" dx="2.457" dy="1.721" in="SourceAlpha"/>
      <feGaussianBlur result="blur" stdDeviation="2.646"/>
      <feFlood result="flood" flood-color="#030409" flood-opacity="0.25"/>
      <feComposite result="composite" operator="in" in2="blur"/>
      <feBlend result="blend" in="SourceGraphic"/>
    </filter>
  </defs>
  <g id="Artboard_3" data-name="Artboard 3">
    <g class="cls-1">
      <text id="n" class="cls-2" x="0.001" y="72">n</text>
      <text id="blify" class="cls-3" x="138" y="71">blify</text>
      <path class="cls-4" d="M692.831,48.526l-3.606,7.1c-3.4-1.963-6.5-4.638-10.045-5.6-6.032-1.632-11.743,1.667-14.374,7.169a13.363,13.363,0,0,0,2.983,15.682,14.284,14.284,0,0,0,16.866,1.389c4.626-2.89,6.689-7.4,7.818-12.563,2.821-12.9,12.427-20.993,24.414-20.684A22.014,22.014,0,0,1,726.272,82.5a21.309,21.309,0,0,1-26.08-4.88l4.03-8.142c0.7,0.786,1.3,1.469,1.908,2.148,4.653,5.2,11.86,6.267,17.383,2.569a13.445,13.445,0,0,0-12-23.838c-5.5,1.865-8.557,5.987-10.3,11.361-1.219,3.762-2.074,7.764-3.969,11.161-4.869,8.733-12.683,12.682-22.529,11.98-8.849-.63-16.168-6.958-18.793-15.63a21.94,21.94,0,0,1,10.388-25.5A21.039,21.039,0,0,1,692.831,48.526Z" transform="translate(-604 -14)"/>
    </g>
  </g>
</svg>
